<?xml version="1.0" encoding="utf-8"?>
<!-- Generator: Adobe Illustrator 22.0.1, SVG Export Plug-In . SVG Version: 6.00 Build 0)  -->
<svg version="1.1" id="Ebene_1" xmlns="http://www.w3.org/2000/svg" xmlns:xlink="http://www.w3.org/1999/xlink" x="0px" y="0px"
	 viewBox="0 0 148 25.5" style="enable-background:new 0 0 148 25.5;" xml:space="preserve">
<style type="text/css">
	.st0{fill:#343434;}
	.st1{font-family:'FuturaPT-Book';}
	.st2{font-size:20.721px;}
	.st3{font-family:'FuturaPT-Heavy';}
</style>
<g>
	<text transform="matrix(1 0 0 1 27.6079 19.5156)"><tspan x="0" y="0" class="st0 st1 st2">HEALTH </tspan><tspan x="72.1" y="0" class="st0 st3 st2">PLUS</tspan></text>
	<g>
		<path class="st0" d="M16.7,17.7C16.7,17.7,16.7,17.7,16.7,17.7c-0.6-0.2-1.1,0.2-1,0.7c0.1,0.3,0.2,0.5,0.4,0.7
			c0.5,0.4,0.6,0.4,1,0c0.1-0.1,0.1-0.1,0.2-0.2c1.2-1.2,2.3-2.3,3.5-3.5c1.1-1.1,2.2-2.2,3.3-3.3c0.1-0.1,0.1-0.2,0.1-0.3
			c0-1.3,0-2.6,0-3.9c0-0.1-0.1-0.2-0.1-0.3c-0.9-0.9-1.8-1.8-2.8-2.8c-0.1-0.1-0.2-0.2-0.3-0.2c-2,0-4,0-6.1,0
			c-0.1,0-0.2,0-0.3,0.1c-0.4,0.4-0.7,0.8-1,1.2c-0.6,0.7-1.2,1.5-2,1.9c-0.7,0.3-1.4,0.5-2.1,0.5c-0.4,0-0.6-0.2-0.8-0.5
			C8.6,7.5,8.7,7.2,8.9,7C9,6.9,9,6.8,9.1,6.7C8.6,6.8,8.2,7,7.9,7.3C7.6,7.7,7.5,8.1,7.7,8.6c0.2,0.5,0.7,0.7,1.2,0.8
			c0.3,0,0.6,0,1,0c-0.7,0.4-1.3,0.5-2,0.5c-0.7,0-1.3-0.5-1.6-1.2C6,8,6.2,7.3,6.8,6.9C7.3,6.4,8,6.2,8.7,6.1
			c1-0.1,2.1-0.1,3.1,0.1c0.1,0,0.3,0,0.5,0c-0.4-0.5-0.8-1-1.2-1.4c0-0.1-0.2-0.1-0.2-0.1c-2,0-4,0-6.1,0c-0.1,0-0.3,0.1-0.3,0.1
			C4.1,5.3,3.7,5.8,3.4,6.3C2.9,7.1,2.8,7.9,3,8.8c0.2,0.8,0.7,1.4,1.3,1.8c1.5,1.2,3.1,1.7,5,1.1C8,12.7,6.5,12.9,5,12.4
			C2.8,11.8,1.9,10,1.7,7.8c0,0.2,0,0.4,0,0.6c0,1.1,0,2.1,0.5,3.1c0.5,1.1,1.2,2,2.3,2.5c1,0.5,2.1,0.5,3.2,0.3
			c0.5-0.1,1-0.3,1.6-0.4c-1.4,1.5-3,1.4-4.7,0.7C5.2,16,7.2,17,8.8,15.7c-0.2,0.5-0.4,1-0.5,1.6c-0.1,0.6-0.2,1.2,0.4,1.7
			c0.3,0.3,0.6,0.6,1,1c0.2,0.2,0.4,0.3,0.5,0.5c0,0,0,0,0.1-0.1C10.1,20.3,10,20.1,10,20c-0.3-0.5-0.4-1.1-0.4-1.7
			c0-0.5,0.4-1,0.7-1.1c0,0.1,0,0.1,0,0.2c0,1.2,0.4,2.2,1.1,3.2c0.5,0.8,1.2,1.3,2,1.8c0.3,0.2,0.4,0.1,0.6-0.1
			c0.7-0.7,1.4-1.4,2.1-2.1c0.2-0.2,0.2-0.3,0-0.5c-0.2-0.3-0.4-0.6-0.5-0.9c-0.4-0.9-0.8-1.8-1.2-2.8c-0.1-0.3-0.3-0.5-0.6-0.7
			c-0.5-0.2-0.9-0.3-1.4-0.5c-0.5-0.1-1-0.2-1.3-0.5c-0.3-0.3-0.3-0.4-0.1-0.7c0.1-0.1,0.1-0.2,0.2-0.3c0.2-0.3,0.3-0.5,0-0.8
			c-0.1-0.2-0.1-0.3,0.1-0.4c0.1,0,0.2-0.1,0.3-0.1c-0.1,0-0.1-0.1-0.1-0.1c-0.3-0.3-0.3-0.5,0.1-0.7c0,0,0.1,0,0.1-0.1
			c0.3-0.2,0.4-0.4,0.1-0.7c-0.3-0.3-0.2-0.6,0.2-0.7c0.5-0.2,1-0.3,1.3-0.9c0.1-0.2,0.3-0.5,0.4-0.7c0.2-0.7,0.6-1.3,1.2-1.8
			c0.7-0.5,1.5-0.6,2.2-0.8c-0.2,0.2-0.5,0.5-0.8,0.8c-0.6,0.6-0.8,1.4-0.7,2.3c0.1,0.5,0.2,1,0.3,1.5c0.1,0.6,0.2,1.1-0.2,1.6
			c-0.1,0.1-0.1,0.2-0.1,0.3c0.5-0.2,0.9-0.8,0.8-1.4c-0.1-0.3-0.1-0.6-0.2-1c0.1,0.1,0.1,0.2,0.1,0.2c0.3,0.8,0.4,1.5-0.1,2.2
			c-0.3,0.5-0.8,0.6-1.3,0.2c-0.2-0.2-0.2-0.5,0.1-0.7c0.1,0,0.2-0.1,0.3-0.1c-0.1,0-0.2-0.1-0.3-0.1c-0.8-0.2-1.3,0.1-1.4,1
			c0,0.3,0.1,0.6,0.3,0.9c0.4,0.7,1.2,1,2,1.1c0.5,0.1,1,0,1.5-0.2c-0.5,0.8-0.5,1.7-0.3,2.6c0.1,0.3,0.1,0.6,0.1,1
			c0,0.2-0.1,0.4-0.2,0.6c-0.1,0.2-0.3,0.2-0.5,0c-0.1-0.2-0.1-0.3,0.1-0.4C16.6,17.7,16.7,17.7,16.7,17.7z"/>
		<path class="st0" d="M16.7,17.7c-0.1,0-0.1,0-0.2,0.1c-0.1,0.1-0.2,0.3-0.1,0.4c0.2,0.2,0.4,0.2,0.5,0c0.1-0.2,0.2-0.4,0.2-0.6
			c0-0.3,0-0.6-0.1-1c-0.2-0.9-0.1-1.7,0.3-2.6c-0.5,0.2-1,0.3-1.5,0.2c-0.8-0.1-1.5-0.4-2-1.1c-0.2-0.3-0.3-0.6-0.3-0.9
			c0-0.9,0.5-1.1,1.4-1c0.1,0,0.1,0.1,0.3,0.1c-0.1,0.1-0.2,0.1-0.3,0.1c-0.3,0.2-0.3,0.4-0.1,0.7c0.5,0.5,0.9,0.4,1.3-0.2
			c0.5-0.7,0.4-1.5,0.1-2.2c0-0.1-0.1-0.2-0.1-0.2c0.1,0.3,0.1,0.6,0.2,1c0.1,0.6-0.2,1.2-0.8,1.4c0.1-0.1,0.1-0.2,0.1-0.3
			c0.4-0.5,0.3-1,0.2-1.6c-0.1-0.5-0.3-1-0.3-1.5c-0.1-0.9,0.2-1.6,0.7-2.3c0.2-0.3,0.5-0.5,0.8-0.8c-0.7,0.2-1.5,0.3-2.2,0.8
			c-0.6,0.4-1,1.1-1.2,1.8c-0.1,0.3-0.2,0.5-0.4,0.7C13,9.4,12.5,9.5,12,9.7c-0.4,0.2-0.5,0.4-0.2,0.7c0.3,0.3,0.2,0.5-0.1,0.7
			c0,0-0.1,0.1-0.1,0.1c-0.3,0.2-0.4,0.4-0.1,0.7c0,0,0.1,0.1,0.1,0.1c-0.1,0-0.2,0.1-0.3,0.1c-0.1,0.1-0.2,0.2-0.1,0.4
			c0.2,0.3,0.2,0.5,0,0.8c-0.1,0.1-0.1,0.2-0.2,0.3c-0.2,0.3-0.2,0.5,0.1,0.7c0.4,0.4,0.9,0.4,1.3,0.5c0.5,0.1,0.9,0.3,1.4,0.5
			c0.3,0.1,0.4,0.4,0.6,0.7c0.4,0.9,0.8,1.9,1.2,2.8c0.1,0.3,0.3,0.6,0.5,0.9c0.1,0.2,0.1,0.3,0,0.5c-0.7,0.7-1.4,1.4-2.1,2.1
			c-0.2,0.2-0.3,0.2-0.6,0.1c-0.8-0.5-1.5-1.1-2-1.8c-0.7-1-1-2-1.1-3.2c0-0.1,0-0.1,0-0.2c-0.4,0.1-0.7,0.6-0.7,1.1
			c0,0.6,0.1,1.2,0.4,1.7c0.1,0.1,0.1,0.3,0.2,0.4c0,0,0,0-0.1,0.1C10,20.3,9.8,20.2,9.6,20c-0.3-0.3-0.6-0.7-1-1
			c-0.5-0.5-0.5-1.1-0.4-1.7c0.1-0.6,0.4-1.1,0.5-1.6C7.2,17,5.2,16,4.4,14.7c1.7,0.6,3.3,0.7,4.7-0.7c-0.5,0.2-1.1,0.4-1.6,0.4
			c-1.1,0.2-2.2,0.2-3.2-0.3c-1.1-0.6-1.8-1.5-2.3-2.5c-0.5-1-0.5-2-0.5-3.1c0-0.2,0-0.4,0-0.6C1.9,10,2.8,11.8,5,12.4
			c1.5,0.4,3,0.2,4.3-0.7c-1.9,0.6-3.5,0.1-5-1.1C3.7,10.2,3.2,9.6,3,8.8C2.8,7.9,2.9,7.1,3.4,6.3c0.3-0.5,0.7-1,1.1-1.5
			c0.1-0.1,0.2-0.1,0.3-0.1c2,0,4,0,6.1,0c0.1,0,0.2,0,0.2,0.1c0.4,0.5,0.8,0.9,1.2,1.4c-0.2,0-0.4,0-0.5,0c-1-0.2-2.1-0.2-3.1-0.1
			C8,6.2,7.3,6.4,6.8,6.9C6.2,7.3,6,8,6.2,8.7c0.2,0.7,0.9,1.1,1.6,1.2c0.7,0,1.4-0.1,2-0.5c-0.4,0-0.7,0-1,0c-0.5,0-1-0.2-1.2-0.8
			C7.5,8.1,7.6,7.7,7.9,7.3C8.2,7,8.6,6.8,9.1,6.7C9,6.8,9,6.9,8.9,7C8.7,7.2,8.6,7.5,8.7,7.8c0.1,0.3,0.4,0.5,0.8,0.5
			c0.8,0.1,1.5-0.2,2.1-0.5c0.9-0.4,1.4-1.2,2-1.9c0.3-0.4,0.7-0.8,1-1.2c0.1-0.1,0.2-0.1,0.3-0.1c2,0,4,0,6.1,0
			c0.1,0,0.2,0.1,0.3,0.2c0.9,0.9,1.8,1.8,2.8,2.8c0.1,0.1,0.1,0.2,0.1,0.3c0,1.3,0,2.6,0,3.9c0,0.1,0,0.2-0.1,0.3
			c-1.1,1.1-2.2,2.2-3.3,3.3c-1.2,1.2-2.3,2.3-3.5,3.5c-0.1,0.1-0.1,0.1-0.2,0.2c-0.4,0.4-0.6,0.4-1,0c-0.2-0.2-0.3-0.4-0.4-0.7
			C15.6,17.9,16.2,17.6,16.7,17.7C16.7,17.7,16.7,17.7,16.7,17.7z"/>
	</g>
</g>
</svg>
