<?xml version="1.0" encoding="utf-8"?>
<!-- Generator: Adobe Illustrator 22.0.1, SVG Export Plug-In . SVG Version: 6.00 Build 0)  -->
<svg version="1.1" id="Ebene_1" xmlns="http://www.w3.org/2000/svg" xmlns:xlink="http://www.w3.org/1999/xlink" x="0px" y="0px"
	 viewBox="0 0 468 126" style="enable-background:new 0 0 468 126;" xml:space="preserve">
<style type="text/css">
	.st0{fill:#343434;}
	.st1{font-family:'FuturaPT-Book';}
	.st2{font-size:60.9362px;}
	.st3{font-family:'FuturaPT-Heavy';}
</style>
<g>
	<text transform="matrix(1 0 0 1 97.0698 80.4728)"><tspan x="0" y="0" class="st0 st1 st2">HEALTH </tspan><tspan x="212.1" y="0" class="st0 st3 st2">PLUS</tspan></text>
	<g>
		<path class="st0" d="M65.1,75.2c-0.1-0.1-0.1-0.2-0.2-0.2c-1.5-0.2-3,0.8-2.6,2.2c0.2,0.7,0.6,1.5,1.2,2c1.3,1.2,1.7,1.1,3-0.1
			c0.2-0.1,0.3-0.3,0.5-0.5c3.4-3.4,6.8-6.8,10.3-10.3c3.2-3.2,6.5-6.4,9.7-9.7c0.2-0.2,0.3-0.5,0.3-0.8c0-3.9,0-7.7,0-11.6
			c0-0.3-0.1-0.6-0.4-0.9c-2.7-2.7-5.4-5.4-8.1-8.1c-0.2-0.2-0.6-0.5-1-0.5c-5.9,0-11.9,0-17.8,0c-0.3,0-0.6,0.1-0.8,0.3
			c-1,1.2-2.1,2.3-3.1,3.5c-1.8,2.1-3.4,4.3-6,5.5c-2,1-4,1.6-6.2,1.4c-1-0.1-1.9-0.6-2.2-1.6c-0.3-0.9-0.2-1.8,0.6-2.5
			c0.2-0.2,0.3-0.4,0.5-0.8c-1.5,0.2-2.6,0.8-3.5,1.8c-1.1,1.2-1.3,2.5-0.8,3.9c0.5,1.6,1.9,2.1,3.4,2.2c0.9,0.1,1.8,0,2.9,0
			c-2,1.2-3.9,1.5-6,1.4c-2.1-0.1-3.9-1.4-4.6-3.4c-0.7-1.9,0-4,1.6-5.4c1.6-1.3,3.5-2,5.5-2.3c3.1-0.4,6.2-0.3,9.2,0.2
			c0.4,0.1,0.9,0.1,1.6,0.1c-1.3-1.5-2.5-2.9-3.7-4.3c-0.1-0.1-0.5-0.2-0.7-0.2c-5.9,0-11.9,0-17.8,0c-0.3,0-0.8,0.2-1,0.4
			c-1.1,1.4-2.3,2.8-3.2,4.3c-1.4,2.3-1.7,4.8-1,7.4c0.6,2.3,2,4,3.8,5.4c4.3,3.4,9,5.1,14.7,3.2c-4,2.7-8.3,3.3-12.7,2
			c-6.6-2-9-7.2-9.8-13.6c-0.1,0.6-0.1,1.1-0.1,1.7c-0.1,3.1,0,6.2,1.4,9.1c1.5,3.2,3.5,5.8,6.7,7.4c3,1.5,6.2,1.5,9.4,1
			c1.5-0.2,3-0.8,4.6-1.3c-4.2,4.3-8.9,4.1-13.9,2.2c2.6,4,8.4,6.8,13,3.1c-0.5,1.5-1.2,3.1-1.6,4.7c-0.4,1.7-0.5,3.5,1.1,4.9
			c1,0.9,1.9,1.9,2.8,2.8c0.5,0.5,1.1,0.9,1.6,1.4c0.1-0.1,0.1-0.1,0.2-0.2c-0.2-0.4-0.4-0.9-0.7-1.3c-0.8-1.6-1.3-3.3-1.2-5.1
			c0.1-1.4,1.1-3,2.2-3.2c0,0.2,0,0.4,0,0.7c0.1,3.4,1.1,6.6,3.1,9.3c1.6,2.2,3.7,4,6,5.4c0.8,0.5,1.2,0.3,1.7-0.2
			c2.1-2.1,4.1-4.2,6.2-6.2c0.5-0.5,0.5-0.9,0.1-1.4c-0.6-0.8-1.1-1.7-1.5-2.6c-1.2-2.7-2.3-5.4-3.5-8.1c-0.3-0.9-0.8-1.6-1.7-1.9
			c-1.3-0.5-2.7-1-4.1-1.4c-1.4-0.4-2.8-0.5-3.9-1.6c-0.8-0.8-0.9-1.2-0.3-2.1c0.2-0.3,0.4-0.6,0.6-0.9c0.7-0.9,0.8-1.4,0.1-2.4
			c-0.3-0.5-0.2-0.9,0.3-1.2c0.2-0.1,0.5-0.2,0.7-0.4c-0.2-0.1-0.3-0.2-0.4-0.3c-0.9-0.8-0.9-1.4,0.2-2c0.1-0.1,0.2-0.1,0.3-0.2
			c0.9-0.6,1-1.3,0.3-2.1c-0.8-0.9-0.6-1.6,0.7-2.1c1.5-0.5,3-0.9,3.9-2.5c0.4-0.7,0.8-1.4,1.1-2.2c0.7-2.1,1.8-3.9,3.6-5.2
			c2-1.4,4.3-1.9,6.4-2.4c-0.7,0.7-1.6,1.4-2.3,2.2c-1.7,1.9-2.4,4.1-2.2,6.6c0.2,1.5,0.5,3,0.9,4.4c0.4,1.6,0.6,3.2-0.5,4.6
			c-0.1,0.2-0.2,0.5-0.4,0.8c1.6-0.4,2.6-2.3,2.2-4c-0.2-0.9-0.4-1.9-0.6-2.8c0.2,0.2,0.3,0.5,0.4,0.7c0.9,2.2,1.1,4.4-0.3,6.6
			c-1,1.6-2.4,1.8-3.7,0.4c-0.7-0.7-0.6-1.5,0.3-2c0.2-0.1,0.5-0.2,0.9-0.4c-0.4-0.1-0.5-0.3-0.7-0.3c-2.4-0.5-3.9,0.3-4,2.9
			c0,0.9,0.3,1.9,0.8,2.7c1.3,2.2,3.4,2.9,5.8,3.3c1.5,0.3,2.9,0,4.4-0.6c-1.4,2.4-1.6,4.9-1,7.5c0.2,0.9,0.4,1.9,0.3,2.8
			c0,0.6-0.3,1.3-0.7,1.8c-0.4,0.5-1,0.4-1.4,0c-0.4-0.5-0.3-0.9,0.2-1.3C64.8,75.3,64.9,75.2,65.1,75.2z"/>
		<path class="st0" d="M65.1,75.2c-0.2,0.1-0.3,0.1-0.5,0.2c-0.4,0.4-0.6,0.8-0.2,1.3c0.5,0.5,1.1,0.5,1.4,0
			c0.4-0.5,0.7-1.2,0.7-1.8c0-0.9-0.1-1.9-0.3-2.8c-0.6-2.6-0.4-5.1,1-7.5c-1.5,0.5-2.9,0.8-4.4,0.6c-2.3-0.4-4.5-1.1-5.8-3.3
			c-0.5-0.8-0.8-1.8-0.8-2.7c0.1-2.6,1.6-3.4,4-2.9c0.2,0,0.4,0.2,0.7,0.3c-0.4,0.2-0.7,0.3-0.9,0.4c-0.9,0.5-1,1.3-0.3,2
			c1.3,1.3,2.7,1.2,3.7-0.4c1.4-2.1,1.3-4.3,0.3-6.6c-0.1-0.2-0.2-0.5-0.4-0.7c0.2,0.9,0.4,1.9,0.6,2.8c0.3,1.7-0.7,3.5-2.2,4
			c0.2-0.3,0.2-0.6,0.4-0.8c1.1-1.5,0.9-3,0.5-4.6c-0.4-1.4-0.8-2.9-0.9-4.4c-0.3-2.5,0.5-4.8,2.2-6.6c0.7-0.8,1.6-1.5,2.3-2.2
			c-2.2,0.5-4.5,1-6.4,2.4c-1.8,1.3-3,3.1-3.6,5.2c-0.3,0.8-0.7,1.5-1.1,2.2c-0.9,1.6-2.4,2-3.9,2.5c-1.3,0.5-1.5,1.2-0.7,2.1
			c0.7,0.8,0.6,1.5-0.3,2.1c-0.1,0.1-0.2,0.2-0.3,0.2c-1,0.6-1.1,1.2-0.2,2c0.1,0.1,0.2,0.2,0.4,0.3c-0.3,0.1-0.5,0.2-0.7,0.4
			c-0.4,0.3-0.6,0.7-0.3,1.2c0.6,1,0.6,1.5-0.1,2.4c-0.2,0.3-0.4,0.6-0.6,0.9c-0.6,1-0.5,1.4,0.3,2.1c1.1,1.1,2.6,1.2,3.9,1.6
			c1.4,0.4,2.8,0.9,4.1,1.4c0.8,0.3,1.3,1.1,1.7,1.9c1.1,2.7,2.3,5.5,3.5,8.1c0.4,0.9,1,1.7,1.5,2.6c0.4,0.6,0.3,1-0.1,1.4
			c-2.1,2.1-4.1,4.1-6.2,6.2c-0.5,0.5-1,0.7-1.7,0.2c-2.3-1.4-4.4-3.1-6-5.4c-2-2.8-3-5.9-3.1-9.3c0-0.2,0-0.4,0-0.7
			C45,73.7,44,75.3,44,76.7c-0.1,1.8,0.4,3.5,1.2,5.1c0.2,0.4,0.4,0.9,0.7,1.3c-0.1,0.1-0.1,0.1-0.2,0.2c-0.5-0.5-1.1-0.9-1.6-1.4
			c-1-0.9-1.8-1.9-2.8-2.8c-1.5-1.4-1.5-3.2-1.1-4.9c0.4-1.7,1.1-3.3,1.6-4.7c-4.7,3.7-10.5,0.8-13-3.1c5,1.8,9.8,2.1,13.9-2.2
			c-1.6,0.5-3.1,1-4.6,1.3c-3.2,0.5-6.4,0.6-9.4-1c-3.2-1.6-5.2-4.3-6.7-7.4c-1.4-2.9-1.5-6-1.4-9.1c0-0.6,0-1.1,0.1-1.7
			c0.8,6.3,3.2,11.6,9.8,13.6c4.4,1.3,8.7,0.7,12.7-2c-5.7,1.9-10.4,0.2-14.7-3.2c-1.8-1.4-3.2-3.2-3.8-5.4c-0.7-2.6-0.4-5.1,1-7.4
			c0.9-1.5,2.1-2.9,3.2-4.3c0.2-0.3,0.6-0.4,1-0.4c5.9,0,11.9,0,17.8,0c0.2,0,0.6,0,0.7,0.2c1.2,1.3,2.3,2.7,3.7,4.3
			c-0.7,0-1.1,0-1.6-0.1c-3.1-0.5-6.2-0.6-9.2-0.2c-2,0.3-3.9,0.9-5.5,2.3c-1.6,1.4-2.3,3.5-1.6,5.4c0.7,2,2.5,3.3,4.6,3.4
			c2,0.1,4-0.2,6-1.4c-1.1,0-2,0.1-2.9,0c-1.5-0.1-2.9-0.6-3.4-2.2c-0.5-1.4-0.3-2.8,0.8-3.9c0.9-0.9,2-1.5,3.5-1.8
			c-0.2,0.4-0.3,0.7-0.5,0.8c-0.8,0.7-0.9,1.6-0.6,2.5c0.3,1,1.2,1.5,2.2,1.6c2.2,0.2,4.3-0.4,6.2-1.4c2.6-1.2,4.2-3.4,6-5.5
			c1-1.2,2-2.4,3.1-3.5c0.2-0.2,0.5-0.3,0.8-0.3c5.9,0,11.9,0,17.8,0c0.3,0,0.7,0.2,1,0.5c2.7,2.7,5.4,5.4,8.1,8.1
			c0.2,0.2,0.4,0.6,0.4,0.9c0,3.9,0,7.7,0,11.6c0,0.3-0.1,0.6-0.3,0.8c-3.2,3.2-6.5,6.5-9.7,9.7c-3.4,3.4-6.8,6.8-10.3,10.3
			c-0.2,0.2-0.3,0.3-0.5,0.5c-1.3,1.2-1.6,1.3-3,0.1c-0.6-0.5-1-1.3-1.2-2c-0.4-1.5,1.1-2.5,2.6-2.2C64.9,75,65,75.1,65.1,75.2z"/>
	</g>
</g>
</svg>
